<?xml version="1.0" encoding="utf-8"?>
<!-- Generator: Adobe Illustrator 16.0.0, SVG Export Plug-In . SVG Version: 6.00 Build 0)  -->
<!DOCTYPE svg PUBLIC "-//W3C//DTD SVG 1.1//EN" "http://www.w3.org/Graphics/SVG/1.1/DTD/svg11.dtd">
<svg version="1.1" xmlns="http://www.w3.org/2000/svg" xmlns:xlink="http://www.w3.org/1999/xlink" x="0px" y="0px"
	 width="595.28px" height="841.89px" viewBox="0 0 595.28 841.89" enable-background="new 0 0 595.28 841.89" xml:space="preserve">
<g id="枠">
	
		<rect id="枠_42_" x="419.532" y="23.611" fill="none" stroke="#000000" stroke-width="0.7087" stroke-miterlimit="10" width="119.055" height="18.908"/>
	
		<rect id="枠_41_" x="360.005" y="23.611" fill="none" stroke="#000000" stroke-width="0.7087" stroke-miterlimit="10" width="59.527" height="18.908"/>
	
		<rect id="枠_40_" x="56.692" y="42.52" fill="none" stroke="#000000" stroke-width="0.7087" stroke-miterlimit="10" width="481.895" height="19.843"/>
	
		<rect id="枠_39_" x="56.692" y="62.363" fill="none" stroke="#000000" stroke-width="0.7087" stroke-miterlimit="10" width="90.142" height="14.173"/>
	
		<rect id="枠_38_" x="56.692" y="76.536" fill="none" stroke="#000000" stroke-width="0.7087" stroke-miterlimit="10" width="90.142" height="14.173"/>
	
		<rect id="枠_37_" x="56.692" y="90.709" fill="none" stroke="#000000" stroke-width="0.7087" stroke-miterlimit="10" width="90.142" height="14.173"/>
	
		<rect id="枠_30_" x="146.834" y="62.363" fill="none" stroke="#000000" stroke-width="0.7087" stroke-miterlimit="10" width="391.753" height="14.173"/>
	
		<rect id="枠_29_" x="146.834" y="76.536" fill="none" stroke="#000000" stroke-width="0.7087" stroke-miterlimit="10" width="391.753" height="14.173"/>
	
		<rect id="枠_28_" x="146.834" y="90.709" fill="none" stroke="#000000" stroke-width="0.7087" stroke-miterlimit="10" width="391.753" height="14.173"/>
	
		<rect id="枠_22_" x="56.692" y="104.883" fill="none" stroke="#000000" stroke-width="0.7087" stroke-miterlimit="10" width="481.895" height="694.487"/>
</g>
<g id="固定文字">
	<g>
		<path d="M371.253,33.206c-0.656-0.438-1.094-0.703-1.313-0.797v1.453h-0.797v-1.453c-0.531,0.563-1.281,1.063-2.25,1.5
			l-0.422-0.891c0.938-0.344,1.766-0.797,2.484-1.359h-1.641v-2.016h1.828v-0.563h-2.438v-0.75h2.438v-0.75h0.75
			c0.25,0.031,0.266,0.125,0.047,0.281v0.469h2.344v0.75h-2.344v0.563h1.734v2.016h-1.734c0.563,0.157,1.156,0.422,1.781,0.797
			L371.253,33.206z M372.331,35.737h2.953v0.75h-2.953v0.891h4.453v0.75h-10.125v-0.75h2.109v-1.875h0.75
			c0.25,0.031,0.266,0.125,0.047,0.281v1.594h1.969v-2.391h-4.219v-0.75h8.859v0.75h-3.844V35.737z M369.144,31.097v-0.891h-1.172
			v0.891H369.144z M371.019,31.097v-0.891h-1.078v0.891H371.019z M373.737,29.034h3.094v0.75h-0.797
			c-0.156,0.969-0.453,1.734-0.891,2.297c0.438,0.375,1.125,0.656,2.063,0.844l-0.281,0.938c-1-0.281-1.797-0.672-2.391-1.172
			c-0.75,0.563-1.641,0.969-2.672,1.219l-0.375-0.844c1-0.25,1.781-0.578,2.344-0.984c-0.438-0.625-0.75-1.203-0.938-1.734
			c-0.156,0.375-0.391,0.734-0.703,1.078l-0.469-0.656c0.75-0.844,1.25-1.906,1.5-3.188l0.938,0.281
			c0.125,0.125,0.078,0.204-0.141,0.234L373.737,29.034z M373.456,29.784c0.219,0.656,0.547,1.235,0.984,1.734
			c0.313-0.375,0.563-0.953,0.75-1.734H373.456z"/>
		<path d="M382.409,35.503c-1.219,0.438-2.359,0.797-3.422,1.078c-0.094,0.25-0.188,0.297-0.281,0.141l-0.328-1.078l1.641-0.328
			v-2.578h-1.266v-0.891h1.266v-2.484h-1.406v-0.891h3.75v0.891h-1.406v2.484h1.266v0.891h-1.266v2.344
			c0.25-0.031,0.703-0.156,1.359-0.375L382.409,35.503z M386.112,33.3v1.359h2.625v0.891h-2.625v1.453h3.094v0.891h-7.453v-0.891
			h3.563V35.55h-2.531v-0.891h2.531V33.3h-1.688v0.609h-0.797v-5.766h5.813v5.578h-0.797V33.3H386.112z M385.315,30.394v-1.5h-1.688
			v1.5H385.315z M385.315,31.144h-1.688v1.406h1.688V31.144z M387.847,28.894h-1.734v1.5h1.734V28.894z M387.847,31.144h-1.734
			v1.406h1.734V31.144z"/>
		<path d="M401.065,33.44l-0.328,1.078c-0.625-0.188-1.063-0.375-1.313-0.563v4.359h-0.938v-0.469h-5.344v0.609h-0.938v-4.359
			c-0.313,0.188-0.781,0.375-1.406,0.563l-0.516-0.891c1.594-0.469,2.984-1.234,4.172-2.297h-3.844v-0.891h2.531
			c-0.281-0.406-0.516-0.719-0.703-0.938l0.797-0.328c0.281,0.25,0.547,0.579,0.797,0.984l-0.656,0.281h1.875v-1.547l-3.797,0.094
			l-0.281-0.75c3.563-0.063,6.234-0.25,8.016-0.563l0.469,0.797c0.063,0.157-0.047,0.188-0.328,0.094l-3.141,0.234v1.641h0.891
			l0.984-1.641l0.844,0.469c0.156,0.157,0.109,0.219-0.141,0.188l-0.75,0.984h2.813v0.891h-3.703
			C398.065,32.285,399.378,32.941,401.065,33.44z M398.862,33.722c-0.844-0.344-1.734-0.953-2.672-1.828v1.594h-0.938v-1.594
			c-0.75,0.813-1.563,1.422-2.438,1.828H398.862z M395.253,35.409v-0.938h-2.109v0.938H395.253z M395.253,36.159h-2.109v0.938h2.109
			V36.159z M398.487,35.409v-0.938h-2.297v0.938H398.487z M398.487,37.097v-0.938h-2.297v0.938H398.487z"/>
		<path d="M404.112,35.784c0.531-0.938,0.922-1.797,1.172-2.578h-3v-0.891h10.828v0.891h-6.75c-0.125,0.375-0.25,0.703-0.375,0.984
			h5.578c-0.25,1.875-0.594,3.11-1.031,3.703c-0.25,0.312-0.719,0.438-1.406,0.375l-1.266-0.141l-0.047-1.031l1.453,0.141
			c0.313,0.031,0.547-0.125,0.703-0.469c0.063-0.156,0.203-0.719,0.422-1.688h-4.688c-0.125,0.313-0.297,0.656-0.516,1.031
			L404.112,35.784z M410.206,31.612v-0.328h-5.016v0.422h-0.938v-3.75h6.891v3.656H410.206z M405.19,28.847v1.547h5.016v-1.547
			H405.19z"/>
	</g>
	<g>
		<path d="M141.224,61.538h-1.483v-7.642c-0.545,0.545-1.261,1.138-2.151,1.78l-0.668-1.335c2.227-1.681,3.883-3.438,4.971-5.268
			h-4.525v-1.41h2.374V44.4h1.409c0.396,0.05,0.42,0.198,0.074,0.445v2.819h1.484l0.223-0.223l1.039,0.816
			c0.246,0.198,0.196,0.297-0.148,0.297c-1.089,1.781-1.955,3.018-2.598,3.709v1.41l0.371,0.148l1.188-2.226l1.039,0.667
			c0.246,0.248,0.172,0.347-0.223,0.297l-1.188,1.781c0.643,0.396,1.162,0.767,1.559,1.113l-0.742,1.187
			c-0.445-0.494-1.113-1.063-2.004-1.707V61.538z M154.578,59.534l-0.593,1.707c-1.534-0.545-2.895-1.41-4.081-2.597
			c-1.237,1.286-2.646,2.25-4.229,2.894l-0.741-1.41c1.583-0.594,2.917-1.458,4.007-2.597c-0.891-1.286-1.484-2.745-1.781-4.377
			h-1.113v1.632c0,2.522-0.815,4.674-2.447,6.455l-1.188-1.113c1.434-1.434,2.151-3.437,2.151-6.009v-6.9h3.71V44.4h1.409
			c0.396,0.05,0.42,0.198,0.074,0.445v2.374h2.819l0.371-0.371l1.335,0.816c0.197,0.05,0.123,0.198-0.222,0.445l-1.188,2.596
			l-1.336-0.667l0.668-1.41h-2.448v3.116h1.854l0.297-0.297l1.188,0.742c0.197,0.198,0.123,0.322-0.223,0.371
			c-0.545,2.077-1.237,3.709-2.078,4.896C151.882,58.347,153.144,59.041,154.578,59.534z M146.046,48.628v3.116h2.227v-3.116
			H146.046z M151.239,53.154h-2.744c0.346,1.436,0.79,2.499,1.335,3.19C150.323,55.75,150.794,54.688,151.239,53.154z"/>
		<path d="M170.841,47.738l0.371,0.223c0.84-0.891,1.656-1.954,2.448-3.19l1.187,0.965c0.248,0.296,0.197,0.42-0.148,0.371
			c-1.138,1.287-1.979,2.177-2.521,2.671c0.594,0.396,1.384,1.212,2.373,2.448l-1.335,1.039c-1.187-1.532-2.3-2.719-3.339-3.561
			L170.841,47.738z M178.557,54.415c1.286,2.623,3.833,4.303,7.642,5.045l-0.445,1.855c-3.561-0.792-6.109-2.423-7.642-4.896
			c-0.741,2.771-3.265,4.476-7.567,5.119l-0.594-1.707c4.748-0.593,7.123-2.745,7.123-6.455l0.074-1.113l1.558,0.148
			c0.396,0.05,0.396,0.198,0,0.445L178.557,54.415z M173.141,57.086l-1.483-0.742c0.594-1.039,1.013-2.151,1.261-3.338l1.78,0.593
			c0.197,0.198,0.123,0.322-0.223,0.371C174.13,55.009,173.685,56.047,173.141,57.086z M174.995,48.257l0.891-0.89l0.371,0.223
			c0.643-0.642,1.359-1.606,2.151-2.894l1.112,0.965c0.248,0.296,0.197,0.42-0.148,0.371c-0.741,0.891-1.459,1.682-2.15,2.374
			c0.741,0.545,1.582,1.361,2.521,2.448l-1.335,1.113C177.566,50.78,176.429,49.544,174.995,48.257z M184.64,46.18
			c-0.842,0.94-1.632,1.707-2.373,2.3c0.988,0.594,2.002,1.361,3.041,2.3l-1.262,1.261c-1.583-1.632-2.942-2.793-4.08-3.487
			l0.965-0.964l0.297,0.148c0.791-0.791,1.582-1.755,2.374-2.894l1.187,0.964C185.035,46.106,184.985,46.23,184.64,46.18z
			 M182.638,56.715l-1.336-0.816c0.594-0.939,1.137-2.003,1.632-3.19l1.632,0.816c0.197,0.198,0.123,0.322-0.223,0.371
			C183.798,54.935,183.23,55.875,182.638,56.715z"/>
		<path d="M205.502,53.228v-8.458h1.409c0.396,0.05,0.42,0.198,0.074,0.445v16.173h-1.483v-6.455l-2.671,1.781
			c-0.05,0.346-0.174,0.42-0.371,0.222l-0.594-1.706C203.449,54.489,204.661,53.822,205.502,53.228z M203.499,52.115
			c-0.297-1.187-0.768-2.374-1.41-3.561l1.484-0.593c0.643,1.039,1.137,2.251,1.484,3.635L203.499,52.115z M217.966,61.167
			c-2.771-1.73-4.525-4.179-5.268-7.345c-0.248,3.413-1.78,5.935-4.6,7.567l-0.816-1.558c2.819-1.532,4.229-4.426,4.229-8.68h-3.857
			v-1.41h3.932v-5.045h1.41c0.396,0.05,0.42,0.198,0.074,0.445v4.6h5.268v1.41h-4.896c0.494,3.709,2.274,6.43,5.342,8.161
			L217.966,61.167z M215.146,45.661c0.989,0.544,1.681,1.212,2.077,2.003l-1.187,1.187c-0.495-0.791-1.163-1.484-2.003-2.077
			L215.146,45.661z"/>
		<path d="M235.935,60.573c0.1,0.544-0.049,0.643-0.445,0.297l-1.187-1.187c1.138-1.137,2.151-2.793,3.042-4.971l1.188,0.964
			C237.79,57.754,236.924,59.386,235.935,60.573z M235.563,49.89c1.039,0.445,1.979,1.088,2.82,1.929l-1.039,1.483
			c-0.792-0.84-1.658-1.532-2.597-2.077L235.563,49.89z M236.38,45.364c0.891,0.347,1.73,0.99,2.522,1.929l-1.038,1.484
			c-0.644-0.84-1.436-1.558-2.375-2.151L236.38,45.364z M245.505,52.857h-1.483v1.854c0,3.314-1.806,5.539-5.415,6.677l-0.668-1.707
			c3.065-0.84,4.6-2.547,4.6-5.119v-1.706h-0.891v0.89h-1.484v-8.086h9.571v7.79h-1.483v-0.593h-1.262v5.861
			c0,0.347,0.223,0.52,0.668,0.52h0.742c0.345,0,0.543-0.148,0.593-0.445l0.371-1.558l1.558,0.371l-0.594,2.077
			c-0.197,0.642-0.717,0.964-1.558,0.964h-1.854c-0.94,0-1.41-0.47-1.41-1.409V52.857z M248.251,51.448V47.07h-6.604v4.377H248.251z
			"/>
		<path d="M273.192,47.664v1.41h-6.751v-1.41H273.192z M270.967,61.241v-0.52h-2.597v0.816h-1.261v-6.083h5.118v5.787H270.967z
			 M267.331,45.067h4.896v1.41h-4.896V45.067z M267.331,51.67v-1.41h4.896v1.41H267.331z M267.331,52.857h4.896v1.41h-4.896V52.857z
			 M268.37,59.534h2.597v-2.893h-2.597V59.534z M274.157,45.142h8.531v15.283c0,0.692-0.297,1.039-0.89,1.039h-1.78l-0.297-1.41
			h1.409c0.197,0,0.297-0.1,0.297-0.297V46.551h-6.009v8.458c0,2.572-0.645,4.724-1.93,6.455l-1.113-1.187
			c1.188-1.632,1.781-3.61,1.781-5.935V45.142z M279.128,51.522h1.559v1.187h-4.452v-1.187h1.632v-1.781h-1.632v-1.187h1.632V47.07
			h1.188c0.395,0.05,0.42,0.198,0.074,0.445v1.039h1.633v1.187h-1.633V51.522z M277.644,59.683h-1.261v-5.638h3.933v4.6h-2.672
			V59.683z M277.644,55.231v2.226h1.41v-2.226H277.644z"/>
		<path d="M315.051,53.599c-2.919-1.087-5.342-2.645-7.271-4.674v2.894h-1.484v-2.597c-1.979,2.077-4.377,3.635-7.195,4.674
			l-0.668-1.558c3.264-1.236,5.713-2.745,7.344-4.525h-6.379v-1.41h6.898v-1.781h1.41c0.395,0.05,0.42,0.198,0.074,0.445v1.335
			h6.751v1.41h-6.083c1.879,1.83,4.277,3.166,7.195,4.006L315.051,53.599z M302.438,52.486h9.199v7.271h3.562v1.187h-16.099v-1.187
			h3.338V52.486z M303.923,54.86h6.231v-1.187h-6.231V54.86z M310.154,56.047h-6.231v1.187h6.231V56.047z M310.154,58.421h-6.231
			v1.335h6.231V58.421z"/>
		<path d="M336.358,58.421c0.197,0.248,0.123,0.347-0.223,0.297c-1.188,0.99-2.572,1.929-4.154,2.819l-0.816-1.41
			c1.484-0.692,2.844-1.632,4.08-2.819L336.358,58.421z M340.29,60.276c0,0.791-0.396,1.187-1.187,1.187h-1.335l-0.297-1.41h1.038
			c0.197,0,0.297-0.1,0.297-0.297v-2.819h-7.493v-1.409h16.471v1.409h-7.494V60.276z M331.759,45.067h15.432v1.41h-5.119v1.41h4.08
			v4.08h-13.354v-4.08h4.006v-1.41h-5.045V45.067z M345.632,54.489h-12.167V53.08h12.167V54.489z M336.804,50.78v-1.706h-2.522
			v1.706H336.804z M340.587,46.477h-2.3v1.41h2.3V46.477z M340.587,50.78v-1.706h-2.3v1.706H340.587z M344.667,49.074h-2.596v1.706
			h2.596V49.074z M347.932,59.757l-0.593,1.632c-1.336-0.347-3.018-1.335-5.045-2.968l1.112-1.113
			C345.335,58.694,346.843,59.51,347.932,59.757z"/>
	</g>
	<g>
		<path d="M365.54,61.073c-1.693-1.658-2.539-3.605-2.539-5.84s0.846-4.181,2.539-5.84l0.559,0.559
			c-1.559,1.456-2.336,3.217-2.336,5.281c0,2.065,0.777,3.826,2.336,5.281L365.54,61.073z"/>
		<path d="M372.294,58.839v0.965h-5.18v-0.813c0.777-1.455,1.742-2.844,2.895-4.164c0.643-0.744,0.965-1.523,0.965-2.336
			c0-0.575-0.152-1.016-0.457-1.32c-0.203-0.203-0.475-0.305-0.813-0.305c-0.271,0-0.543,0.136-0.813,0.406
			c-0.305,0.305-0.457,0.932-0.457,1.879h-1.117c0.033-1.219,0.32-2.099,0.863-2.641c0.406-0.406,0.947-0.609,1.625-0.609
			c0.643,0,1.184,0.221,1.625,0.66c0.473,0.475,0.711,1.135,0.711,1.98c0,0.982-0.457,1.998-1.371,3.047
			c-0.982,1.117-1.795,2.201-2.438,3.25H372.294z"/>
		<path d="M373.259,61.022l5.383-11.832l0.508,0.305l-5.383,11.832L373.259,61.022z"/>
		<path d="M385.294,58.839v0.965h-5.18v-0.813c0.777-1.455,1.742-2.844,2.895-4.164c0.643-0.744,0.965-1.523,0.965-2.336
			c0-0.575-0.152-1.016-0.457-1.32c-0.203-0.203-0.475-0.305-0.813-0.305c-0.271,0-0.543,0.136-0.813,0.406
			c-0.305,0.305-0.457,0.932-0.457,1.879h-1.117c0.033-1.219,0.32-2.099,0.863-2.641c0.406-0.406,0.947-0.609,1.625-0.609
			c0.643,0,1.184,0.221,1.625,0.66c0.473,0.475,0.711,1.135,0.711,1.98c0,0.982-0.457,1.998-1.371,3.047
			c-0.982,1.117-1.795,2.201-2.438,3.25H385.294z"/>
		<path d="M386.919,61.073l-0.559-0.559c1.557-1.455,2.336-3.216,2.336-5.281c0-2.064-0.779-3.825-2.336-5.281l0.559-0.559
			c1.691,1.659,2.539,3.605,2.539,5.84S388.61,59.415,386.919,61.073z"/>
	</g>
	<g>
		<path d="M66.7,66.149l0.194,0.116c0.438-0.465,0.866-1.02,1.279-1.666l0.62,0.503c0.129,0.155,0.103,0.22-0.078,0.194
			c-0.594,0.672-1.033,1.137-1.317,1.395c0.31,0.208,0.724,0.634,1.24,1.279l-0.698,0.542c-0.619-0.801-1.201-1.421-1.743-1.86
			L66.7,66.149z M70.731,69.638c0.672,1.37,2.002,2.248,3.992,2.635l-0.232,0.969c-1.861-0.414-3.191-1.266-3.992-2.558
			c-0.388,1.447-1.705,2.338-3.953,2.674l-0.311-0.891c2.48-0.31,3.721-1.434,3.721-3.372l0.039-0.581l0.814,0.078
			c0.206,0.026,0.206,0.104,0,0.232L70.731,69.638z M67.902,71.033l-0.774-0.388c0.31-0.542,0.528-1.124,0.658-1.744l0.93,0.31
			c0.104,0.104,0.064,0.168-0.115,0.193C68.419,69.948,68.187,70.49,67.902,71.033z M68.871,66.421l0.466-0.465l0.193,0.117
			c0.336-0.335,0.71-0.839,1.123-1.512l0.582,0.504c0.129,0.155,0.104,0.22-0.078,0.194c-0.387,0.465-0.762,0.878-1.123,1.24
			c0.387,0.285,0.826,0.711,1.317,1.279l-0.698,0.581C70.214,67.738,69.62,67.093,68.871,66.421z M73.909,65.336
			c-0.439,0.491-0.853,0.891-1.24,1.201c0.517,0.31,1.047,0.711,1.59,1.201l-0.66,0.659c-0.826-0.853-1.537-1.459-2.131-1.822
			l0.504-0.503l0.154,0.077c0.414-0.413,0.827-0.917,1.24-1.511l0.621,0.504C74.116,65.297,74.09,65.362,73.909,65.336z
			 M72.862,70.839l-0.697-0.426c0.311-0.491,0.594-1.046,0.854-1.667l0.852,0.426c0.104,0.104,0.064,0.168-0.115,0.194
			C73.47,69.909,73.173,70.4,72.862,70.839z"/>
		<path d="M87.638,68.514v-0.62h2.674v-0.62h-2.558v-0.62h2.558v-0.504h0.736c0.207,0.026,0.219,0.104,0.039,0.233v0.271h2.596v0.62
			h-2.596v0.62H93.8v0.62h-2.713v0.62h3.953v0.62h-8.643v-0.62h3.914v-0.62H87.638z M90.272,65.142v-0.775h0.854
			c0.232,0.026,0.244,0.13,0.038,0.31v0.465h3.644v1.938h-0.775v-1.201h-6.666v1.201h-0.775v-1.938H90.272z M92.831,72.97h-4.225
			v0.388h-0.775v-3.1h5.775v2.984h-0.775V72.97z M92.831,70.994h-4.225v1.24h4.225V70.994z"/>
		<path d="M115.396,69.289l-0.271,0.892c-0.518-0.155-0.879-0.31-1.086-0.465v3.604h-0.774v-0.388h-4.418v0.504h-0.775v-3.604
			c-0.259,0.155-0.646,0.31-1.163,0.465l-0.426-0.736c1.318-0.388,2.467-1.021,3.449-1.899h-3.178v-0.736h2.093
			c-0.233-0.335-0.427-0.594-0.581-0.775l0.658-0.271c0.232,0.207,0.452,0.478,0.659,0.813l-0.543,0.233h1.55v-1.279l-3.139,0.078
			l-0.232-0.62c2.945-0.051,5.154-0.207,6.627-0.465l0.388,0.659c0.052,0.13-0.038,0.155-0.271,0.078l-2.597,0.194v1.356h0.736
			l0.814-1.356l0.697,0.387c0.129,0.13,0.09,0.181-0.116,0.155l-0.62,0.814h2.325v0.736h-3.062
			C112.915,68.333,114,68.875,115.396,69.289z M113.573,69.521c-0.697-0.284-1.434-0.788-2.209-1.512v1.318h-0.775V68.01
			c-0.619,0.672-1.291,1.176-2.015,1.512H113.573z M110.589,70.917v-0.775h-1.743v0.775H110.589z M110.589,71.537h-1.743v0.775
			h1.743V71.537z M113.264,70.917v-0.775h-1.899v0.775H113.264z M113.264,72.312v-0.775h-1.899v0.775H113.264z"/>
		<path d="M128.271,71.227c0.439-0.775,0.762-1.485,0.969-2.132h-2.48v-0.736h8.953v0.736h-5.582
			c-0.104,0.31-0.207,0.582-0.31,0.814h4.612c-0.207,1.55-0.491,2.571-0.854,3.062c-0.207,0.258-0.594,0.362-1.162,0.31
			l-1.047-0.116l-0.038-0.853l1.201,0.116c0.259,0.026,0.452-0.103,0.581-0.387c0.052-0.129,0.168-0.594,0.35-1.396h-3.876
			c-0.104,0.259-0.245,0.542-0.427,0.853L128.271,71.227z M133.309,67.777v-0.271h-4.147v0.349h-0.774v-3.101h5.696v3.023H133.309z
			 M129.161,65.491v1.279h4.147v-1.279H129.161z"/>
	</g>
	<g>
		<path d="M68.097,87.531h-0.775V83.54c-0.285,0.285-0.659,0.595-1.124,0.93l-0.349-0.698c1.162-0.878,2.027-1.795,2.596-2.751
			h-2.363v-0.736h1.24v-1.705h0.736c0.206,0.026,0.219,0.104,0.039,0.232v1.473h0.774l0.116-0.116l0.543,0.426
			c0.129,0.104,0.103,0.155-0.078,0.155c-0.568,0.93-1.021,1.577-1.355,1.938v0.736l0.193,0.078l0.62-1.163l0.542,0.349
			c0.129,0.129,0.091,0.181-0.115,0.155l-0.621,0.93c0.336,0.207,0.607,0.401,0.814,0.582l-0.388,0.62
			c-0.232-0.258-0.581-0.556-1.046-0.892V87.531z M75.071,86.485l-0.31,0.892c-0.801-0.285-1.511-0.736-2.132-1.356
			c-0.646,0.671-1.382,1.175-2.209,1.511l-0.387-0.736c0.826-0.31,1.523-0.762,2.092-1.356c-0.465-0.671-0.774-1.434-0.93-2.287
			h-0.581v0.853c0,1.318-0.427,2.442-1.278,3.372l-0.621-0.582c0.75-0.749,1.124-1.795,1.124-3.139v-3.604h1.938v-1.473h0.736
			c0.206,0.026,0.219,0.104,0.038,0.232v1.24h1.473l0.194-0.194l0.697,0.426c0.104,0.026,0.064,0.104-0.116,0.232l-0.62,1.356
			l-0.697-0.349l0.349-0.736h-1.279v1.627h0.97l0.154-0.155l0.62,0.388c0.103,0.104,0.063,0.168-0.116,0.193
			c-0.285,1.085-0.646,1.938-1.085,2.558C73.663,85.865,74.322,86.227,75.071,86.485z M70.615,80.788v1.627h1.163v-1.627H70.615z
			 M73.328,83.152h-1.435c0.182,0.75,0.414,1.305,0.698,1.667C72.85,84.508,73.096,83.953,73.328,83.152z"/>
		<path d="M86.979,80.323l0.194,0.116c0.438-0.465,0.865-1.02,1.279-1.666l0.619,0.503c0.129,0.155,0.104,0.22-0.077,0.194
			c-0.595,0.672-1.034,1.137-1.317,1.395c0.31,0.208,0.723,0.634,1.24,1.279l-0.698,0.542c-0.62-0.801-1.201-1.421-1.743-1.86
			L86.979,80.323z M91.009,83.811c0.672,1.37,2.002,2.248,3.992,2.635l-0.232,0.969c-1.86-0.414-3.191-1.266-3.992-2.558
			c-0.387,1.447-1.705,2.338-3.953,2.674l-0.31-0.891c2.48-0.31,3.721-1.434,3.721-3.372l0.038-0.581l0.814,0.078
			c0.207,0.026,0.207,0.104,0,0.232L91.009,83.811z M88.181,85.206l-0.775-0.388c0.311-0.542,0.529-1.124,0.658-1.744l0.931,0.31
			c0.103,0.104,0.063,0.168-0.116,0.193C88.696,84.121,88.464,84.664,88.181,85.206z M89.149,80.594l0.465-0.465l0.193,0.117
			c0.336-0.335,0.711-0.839,1.124-1.512l0.581,0.504c0.129,0.155,0.104,0.22-0.077,0.194c-0.388,0.465-0.763,0.878-1.124,1.24
			c0.388,0.285,0.826,0.711,1.318,1.279l-0.698,0.581C90.492,81.912,89.897,81.266,89.149,80.594z M94.187,79.509
			C93.747,80,93.335,80.4,92.946,80.71c0.518,0.31,1.047,0.711,1.59,1.201l-0.659,0.659c-0.827-0.853-1.537-1.459-2.132-1.822
			l0.504-0.503l0.155,0.077c0.413-0.413,0.827-0.917,1.24-1.511l0.62,0.504C94.394,79.47,94.368,79.535,94.187,79.509z
			 M93.141,85.012l-0.697-0.426c0.31-0.491,0.594-1.046,0.853-1.667l0.853,0.426c0.103,0.104,0.063,0.168-0.116,0.194
			C93.747,84.082,93.45,84.573,93.141,85.012z"/>
		<path d="M108.612,84.431l0.97-0.349l0.194,0.504c0.594-0.388,1.032-0.839,1.316-1.356h-1.55v-0.736h5.853v0.736h-3.527
			c-0.104,0.207-0.207,0.375-0.31,0.504h3.604l-0.232,2.829c-0.053,0.594-0.311,0.891-0.775,0.891h-0.931l-0.116-0.736h0.736
			c0.181,0,0.284-0.09,0.311-0.271l0.193-1.977h-0.426c-0.465,1.757-1.771,2.816-3.914,3.178l-0.232-0.736
			c1.834-0.335,2.957-1.149,3.371-2.441h-0.659c-0.465,1.111-1.331,1.783-2.597,2.015l-0.232-0.62
			c1.033-0.258,1.719-0.723,2.055-1.395h-0.582c-0.543,0.491-0.969,0.814-1.279,0.969l-0.31-0.581l-2.441,0.969
			c-0.026,0.181-0.091,0.22-0.194,0.116l-0.31-0.853l1.24-0.349v-2.945h-1.201v-0.736h1.201V78.85h0.736
			c0.206,0.026,0.22,0.104,0.038,0.232v1.977h1.164v0.736h-1.164V84.431z M110.318,82.028v-3.139h4.069v3.139H110.318z
			 M111.093,80.207h2.52v-0.697h-2.52V80.207z M111.093,81.408h2.52v-0.582h-2.52V81.408z"/>
		<path d="M130.79,80.904v3.372h-0.775v-0.388h-1.744v1.085c0,0.982-0.207,1.808-0.62,2.48l-0.698-0.542
			c0.361-0.517,0.543-1.175,0.543-1.977v-4.03H130.79z M127.185,79.858v-0.736h3.876v0.736H127.185z M130.015,83.152v-1.511h-1.744
			v1.511H130.015z M132.263,79.509c1.136-0.181,1.988-0.4,2.557-0.659l0.427,0.736c0.103,0.232,0.025,0.285-0.232,0.155
			c-0.956,0.207-1.86,0.349-2.713,0.426v1.627h3.411v0.736h-1.279v4.883h-0.775v-4.883h-1.356v1.202c0,1.705-0.62,2.971-1.86,3.798
			l-0.581-0.698c1.11-0.671,1.667-1.73,1.667-3.178v-4.418L132.263,79.509z"/>
	</g>
	<g>
		<path d="M69.53,93.457v2.868h-0.969v1.434h0.891v0.736h-0.891v1.783l1.355-0.426l0.156,0.698l-3.566,1.008
			c-0.025,0.206-0.09,0.258-0.193,0.155l-0.311-0.853l0.465-0.078v-3.604h0.736c0.207,0.026,0.22,0.104,0.039,0.232v3.178
			l0.543-0.116v-4.146h-0.697H66.43v-2.868H69.53z M68.755,95.705v-1.628h-1.551v1.628H68.755z M69.84,98.611l-0.349-0.775
			c0.723-0.232,1.512-0.723,2.364-1.473c-0.207-0.207-0.479-0.582-0.813-1.124c-0.26,0.595-0.518,1.021-0.775,1.279l-0.582-0.581
			c0.621-0.827,1.098-1.86,1.435-3.101l0.813,0.233c0.104,0.104,0.064,0.168-0.116,0.193l-0.194,0.465h1.977l0.117-0.194
			l0.619,0.504c0.104,0.077,0.053,0.155-0.154,0.232c-0.362,0.827-0.789,1.525-1.279,2.093c0.879,0.672,1.628,1.111,2.248,1.318
			l-0.311,0.853c-0.619-0.207-1.447-0.736-2.479-1.589C71.454,97.772,70.615,98.328,69.84,98.611z M74.142,101.673h-0.775v-0.426
			h-1.938v0.542h-0.775v-3.527h3.488V101.673z M71.39,94.465c0.129,0.362,0.452,0.827,0.97,1.395
			c0.465-0.62,0.762-1.085,0.892-1.395H71.39z M73.366,100.627v-1.744h-1.938v1.744H73.366z"/>
		<path d="M77.53,95.279l0.504,0.426l1.046-1.628l0.62,0.426c0.104,0.104,0.064,0.168-0.116,0.194
			c-0.698,1.034-1.267,1.809-1.706,2.325l1.279-0.116l-0.271-0.542l0.582-0.31c0.387,0.491,0.672,1.021,0.853,1.589l-0.698,0.31
			l-0.193-0.426l-0.814,0.116v4.263H77.84V97.72l-1.278,0.078c-0.131,0.155-0.207,0.104-0.232-0.155l-0.078-0.581h0.775l0.542-0.736
			l-1.201-0.969l0.388-0.581l0.193,0.116c0.517-0.801,0.879-1.421,1.086-1.86l0.697,0.349c0.103,0.104,0.064,0.168-0.117,0.194
			C78.072,94.452,77.71,95.021,77.53,95.279z M76.444,100.782c0.207-0.981,0.311-1.757,0.311-2.325l0.697,0.078
			c0.207,0.052,0.219,0.116,0.039,0.194c0,0.853-0.104,1.666-0.311,2.441L76.444,100.782z M79.584,98.418
			c0.181,0.387,0.31,0.93,0.388,1.627l-0.736,0.155c-0.026-0.439-0.13-0.982-0.311-1.628L79.584,98.418z M81.87,98.301l-0.077,0.194
			c-0.026,1.447-0.595,2.48-1.706,3.101l-0.503-0.582c0.931-0.568,1.421-1.317,1.473-2.248h-1.008v-0.62h1.124l0.116-0.116
			L81.87,98.301z M82.646,93.922h1.86v3.41H82.8v0.465c0,0.181,0.143,0.503,0.427,0.969l1.202-1.202l0.542,0.62
			c0.025,0.13-0.038,0.168-0.194,0.116l-1.201,0.93c0.414,0.543,0.969,1.034,1.667,1.473l-0.427,0.775
			c-0.801-0.517-1.473-1.253-2.016-2.209v1.938c0,0.388-0.154,0.582-0.465,0.582h-0.736l-0.154-0.62h0.543
			c0.102,0,0.154-0.052,0.154-0.155v-3.682h-0.853h-0.813v-3.41h1.473l0.232-1.046l0.813,0.155c0.206,0.078,0.194,0.155-0.038,0.232
			L82.646,93.922z M81.134,95.317h2.713v-0.775h-2.713V95.317z M83.847,96.712v-0.775h-2.713v0.775H83.847z"/>
		<path d="M91.442,96.558v1.667h-1.666v-1.667H91.442z"/>
		<path d="M96.132,100.704c0.543-0.594,1.111-1.473,1.705-2.635l0.698,0.465c-0.465,1.007-0.956,1.886-1.473,2.635
			c-0.026,0.258-0.104,0.323-0.232,0.194L96.132,100.704z M96.753,95.55c0.412,0.232,0.852,0.595,1.317,1.085l-0.581,0.775
			c-0.465-0.517-0.892-0.892-1.279-1.124L96.753,95.55z M97.063,93.418c0.388,0.155,0.801,0.479,1.24,0.969l-0.581,0.736
			c-0.439-0.49-0.828-0.827-1.163-1.008L97.063,93.418z M103.961,100.898c0,0.465-0.232,0.698-0.698,0.698h-0.852l-0.194-0.853
			h0.813c0.104,0,0.156-0.052,0.156-0.155v-6.201h-4.613v-0.853h6.356v0.853h-0.969V100.898z M99.039,95.744h3.022v3.875h-0.775
			v-0.388h-1.473v0.736h-0.774V95.744z M101.286,96.48h-1.473v2.015h1.473V96.48z"/>
		<path d="M107.62,93.573h0.853c0.258,0.052,0.271,0.155,0.039,0.31v4.225c0,1.499-0.44,2.648-1.317,3.449l-0.736-0.582
			c0.774-0.646,1.162-1.614,1.162-2.907V93.573z M111.418,94.349v6.239h-0.892v-6.549h0.854
			C111.638,94.09,111.651,94.193,111.418,94.349z M113.472,93.496h0.854c0.258,0.052,0.271,0.155,0.038,0.31v7.751h-0.892V93.496z"
			/>
		<path d="M120.735,97.604h3.604v4.03h-0.775v-0.349h-3.526v0.465h-0.775v-3.139c-0.775,0.44-1.486,0.775-2.131,1.008l-0.311-0.891
			c1.215-0.336,2.39-0.956,3.527-1.86c-0.233-0.258-0.66-0.594-1.279-1.008c-0.518,0.491-1.086,0.905-1.705,1.24l-0.504-0.62
			c1.42-0.723,2.415-1.873,2.984-3.449l0.852,0.194c0.104,0.104,0.064,0.168-0.115,0.194l-0.156,0.349h2.598l0.077-0.155
			l0.813,0.581c0.104,0.104,0.064,0.168-0.115,0.194C122.919,95.653,121.898,96.726,120.735,97.604z M122.635,94.503h-2.558
			l-0.582,0.814c0.568,0.31,1.072,0.646,1.512,1.008C121.575,95.782,122.117,95.176,122.635,94.503z M123.564,98.34h-3.526v2.209
			h3.526V98.34z"/>
		<path d="M128.271,92.953l0.814,0.233c0.103,0.104,0.064,0.168-0.117,0.193l-0.232,0.504h2.48v0.62h-1.355l0.426,0.736
			l-0.853,0.155l-0.388-0.892h-0.582c-0.258,0.414-0.594,0.814-1.007,1.202l-0.581-0.582
			C127.47,94.581,127.935,93.858,128.271,92.953z M129.278,99.929l0.504-0.465h-2.209v-0.736h5.115v-0.659h-5.658v-0.736h3.876
			v-0.775h-2.752v-0.736h2.752v-0.62h0.736c0.206,0.026,0.22,0.104,0.038,0.232v0.388h2.868v0.736h-2.868v0.775h3.914v0.736h-2.131
			v0.659h1.666v0.736h-1.666v1.705c0,0.413-0.207,0.62-0.62,0.62h-0.931l-0.154-0.736h0.775c0.103,0,0.154-0.052,0.154-0.155v-1.434
			h-2.674c0.388,0.258,0.711,0.581,0.969,0.969l-0.697,0.581C130.054,100.679,129.718,100.317,129.278,99.929z M131.101,94.775
			c0.361-0.542,0.632-1.163,0.813-1.86l0.814,0.155c0.104,0.104,0.064,0.168-0.116,0.193l-0.232,0.62h3.14v0.62h-1.822l0.504,0.659
			l-0.853,0.233l-0.504-0.892h-0.697c-0.104,0.232-0.233,0.453-0.388,0.659L131.101,94.775z"/>
	</g>
	<g>
		<path d="M71.157,119.77c0.336-0.078,0.582-0.555,0.736-1.434h-5.891V117.6h6.008l0.077-0.93h-3.449l-0.155,0.388l-0.775-0.194
			c0.361-1.214,0.621-2.351,0.775-3.41l0.736,0.077c0.207,0.026,0.219,0.104,0.039,0.233l-0.116,0.465h3.953v0.736h-4.069
			c-0.078,0.31-0.155,0.633-0.232,0.969h4.186l-0.117,1.667h1.938v0.736h-2.054c-0.259,1.447-0.697,2.222-1.318,2.325
			c-0.594,0.103-1.215,0.039-1.859-0.193l-0.117-0.93C70.279,119.77,70.848,119.848,71.157,119.77z M73.599,114.228v-1.163h-6.395
			v1.163h-0.891v-1.899h8.178v1.899H73.599z"/>
		<path d="M76.041,118.414h8.681v0.736h-2.79c0.491,0.336,1.369,0.659,2.636,0.969l-0.388,0.736
			c-1.267-0.336-2.235-0.762-2.907-1.279l0.465-0.426h-2.674l0.465,0.465c0.104,0.181,0.053,0.246-0.154,0.194
			c-0.775,0.439-1.692,0.801-2.752,1.085l-0.31-0.814c1.214-0.232,2.054-0.542,2.519-0.93h-2.79V118.414z M76.351,112.6h3.604
			v-0.775h0.775c0.181,0.052,0.181,0.116,0,0.194v0.581h3.604v0.736H80.73v0.504h2.364v4.069h-5.426v-4.069h2.286v-0.504h-3.604
			V112.6z M82.319,115.003v-0.542h-3.875v0.542H82.319z M82.319,116.127v-0.504h-3.875v0.504H82.319z M82.319,116.747h-3.875v0.542
			h3.875V116.747z"/>
	</g>
	<g>
		<path d="M69.22,129.381l0.427,0.388c-0.646,0.595-1.099,1.163-1.356,1.705c-0.285,0.595-0.426,1.305-0.426,2.132
			c0,0.697,0.141,1.356,0.426,1.977c0.258,0.568,0.711,1.201,1.356,1.899l-0.427,0.426c-0.646-0.724-1.123-1.408-1.434-2.054
			c-0.336-0.698-0.504-1.447-0.504-2.248c0-0.904,0.168-1.706,0.504-2.403C68.07,130.608,68.548,130.001,69.22,129.381z"/>
		<path d="M72.708,132.636c-0.361,0.208-0.788,0.44-1.279,0.698l-0.387-0.814c1.756-0.749,3.049-1.924,3.875-3.526l0.854,0.116
			c0.206,0.078,0.193,0.142-0.039,0.194l-0.078,0.116c1.163,1.421,2.545,2.377,4.146,2.868l-0.387,0.853
			c-0.311-0.103-0.75-0.323-1.318-0.659v0.659h-2.286v1.318h2.519v0.736h-2.519v1.511h3.565v0.736h-7.906v-0.736h3.566v-1.511h-2.52
			v-0.736h2.52v-1.318h-2.326V132.636z M73.058,132.404h4.883c-0.854-0.465-1.744-1.24-2.674-2.325
			C74.517,131.138,73.78,131.914,73.058,132.404z"/>
		<path d="M80.847,132.559h4.146v-0.465h-1.317h-1.239v-2.868h5.813v2.868h-2.48v0.465h3.953v0.62h-8.875V132.559z M83.985,136.667
			c-0.672,0.517-1.485,0.943-2.441,1.279l-0.348-0.814c1.032-0.387,1.82-0.8,2.363-1.24l0.659,0.659
			C84.244,136.68,84.167,136.719,83.985,136.667z M87.513,135.969v-0.232h-1.705v1.628c0,0.413-0.207,0.62-0.62,0.62h-0.813
			l-0.117-0.853h0.621c0.103,0,0.154-0.051,0.154-0.155v-1.24h-1.898v0.271h-0.659v-2.287h5.696v2.248H87.513z M83.095,129.846
			v0.504h4.496v-0.504H83.095z M87.591,130.97h-4.496v0.503h4.496V130.97z M87.513,134.342h-4.379v0.775h4.379V134.342z
			 M89.024,137.907c-1.137-0.336-2.003-0.775-2.597-1.318l0.581-0.542c0.672,0.517,1.485,0.878,2.441,1.085L89.024,137.907z"/>
		<path d="M91.505,137.907l-0.427-0.426c0.646-0.698,1.099-1.331,1.356-1.899c0.284-0.62,0.426-1.279,0.426-1.977
			c0-0.827-0.142-1.537-0.426-2.132c-0.258-0.542-0.711-1.11-1.356-1.705l0.427-0.388c0.672,0.62,1.148,1.228,1.434,1.822
			c0.336,0.697,0.504,1.499,0.504,2.403c0,0.801-0.168,1.55-0.504,2.248C92.628,136.499,92.149,137.184,91.505,137.907z"/>
	</g>
	<g>
		<path d="M69.22,468.712l0.427,0.388c-0.646,0.595-1.099,1.162-1.356,1.705c-0.285,0.595-0.426,1.305-0.426,2.132
			c0,0.697,0.141,1.356,0.426,1.977c0.258,0.568,0.711,1.201,1.356,1.899l-0.427,0.426c-0.646-0.724-1.123-1.408-1.434-2.055
			c-0.336-0.697-0.504-1.446-0.504-2.247c0-0.904,0.168-1.706,0.504-2.403C68.07,469.939,68.548,469.332,69.22,468.712z"/>
		<path d="M79.8,476.152l-0.115,0.854h-4.535c-0.93,0-1.68-0.324-2.248-0.969c-0.465,0.49-0.943,0.891-1.434,1.201l-0.387-1.008
			c0.49-0.18,0.942-0.4,1.355-0.658v-2.52h-1.355V472.2h2.247v3.294c0.491,0.439,1.099,0.658,1.821,0.658H79.8z M72.321,468.789
			c0.283,0.207,0.709,0.621,1.278,1.24l-0.774,0.814c-0.492-0.594-0.918-1.033-1.279-1.318L72.321,468.789z M78.948,469.216
			c0.129,0.207,0.012,0.259-0.35,0.155l-3.062,0.581v1.278h4.069v0.736h-1.473v3.76h-0.891v-3.76h-1.706v1.202
			c0,1.06-0.427,1.938-1.278,2.636l-0.465-0.736c0.645-0.518,0.969-1.15,0.969-1.899V469.1l0.697,0.232l2.867-0.813L78.948,469.216z
			"/>
		<path d="M80.847,471.891h4.146v-0.466h-1.317h-1.239v-2.868h5.813v2.868h-2.48v0.466h3.953v0.619h-8.875V471.891z M83.985,475.998
			c-0.672,0.517-1.485,0.943-2.441,1.279l-0.348-0.814c1.032-0.387,1.82-0.801,2.363-1.24l0.659,0.659
			C84.244,476.012,84.167,476.051,83.985,475.998z M87.513,475.301v-0.232h-1.705v1.627c0,0.413-0.207,0.621-0.62,0.621h-0.813
			l-0.117-0.854h0.621c0.103,0,0.154-0.051,0.154-0.154v-1.24h-1.898v0.271h-0.659v-2.287h5.696v2.248H87.513z M83.095,469.178
			v0.504h4.496v-0.504H83.095z M87.591,470.301h-4.496v0.504h4.496V470.301z M87.513,473.673h-4.379v0.774h4.379V473.673z
			 M89.024,477.238c-1.137-0.336-2.003-0.775-2.597-1.318l0.581-0.542c0.672,0.517,1.485,0.878,2.441,1.085L89.024,477.238z"/>
		<path d="M91.505,477.238l-0.427-0.426c0.646-0.698,1.099-1.331,1.356-1.899c0.284-0.62,0.426-1.279,0.426-1.977
			c0-0.827-0.142-1.537-0.426-2.132c-0.258-0.543-0.711-1.11-1.356-1.705l0.427-0.388c0.672,0.62,1.148,1.228,1.434,1.821
			c0.336,0.697,0.504,1.499,0.504,2.403c0,0.801-0.168,1.55-0.504,2.247C92.628,475.83,92.149,476.515,91.505,477.238z"/>
	</g>
</g>
<g id="入力枠">
	<rect id="photo_x5F_zenkei" x="69.642" y="140.316" fill="#E71F19" width="463.814" height="299.19"/>
	<rect id="photo_x5F_zenkei_x5F_comment" x="69.642" y="442.126" fill="#E71F19" width="463.814" height="12.756"/>
	<rect id="photo_x5F_kinkei_x5F_comment" x="69.642" y="780.436" fill="#E71F19" width="463.814" height="12.756"/>
	<rect id="photo_x5F_kinkei" x="69.642" y="478.922" fill="#E71F19" width="463.814" height="299.189"/>
	<rect id="route_x5F_name_1_" x="151.642" y="92.25" fill="#E71F19" width="381.814" height="11.339"/>
	<rect id="loc_x5F_name_2_" x="151.642" y="77.954" fill="#E71F19" width="381.814" height="11.339"/>
	<rect id="disaster_x5F_no_1_" x="151.642" y="63.78" fill="#E71F19" width="381.814" height="11.339"/>
	<rect id="survey_x5F_date_1_" x="425.901" y="45.354" fill="#E71F19" width="107.555" height="14.173"/>
	<rect id="ref_x5F_no_2_" x="425.901" y="25.979" fill="#E71F19" width="107.555" height="14.173"/>
</g>
</svg>
